<svg xmlns="http://www.w3.org/2000/svg" xmlns:xlink="http://www.w3.org/1999/xlink" xmlns:s="https://github.com/nturley/netlistsvg" width="366" height="122"><style>svg {
  stroke:#000;
  fill:none;
}
text {
  fill:#000;
  stroke:none;
  font-size:10px;
  font-weight: bold;
  font-family: "Courier New", monospace;
}
line {
    stroke-linecap: round;
}
.nodelabel {
  text-anchor: middle;
}
.inputPortLabel {
  text-anchor: end;
}
.splitjoinBody {
  fill:#000;
}</style><g s:type="dff" transform="translate(246,22)" s:width="30" s:height="40" id="cell_$procdff$16"><s:alias val="$dff"/><s:alias val="$_DFF_"/><s:alias val="$_DFF_P_"/><s:alias val="$adff"/><s:alias val="$_DFF_"/><s:alias val="$_DFF_P_"/><s:alias val="$sdff"/><s:alias val="$_DFF_"/><s:alias val="$_DFF_P_"/><rect width="30" height="40" x="0" y="0" class="cell_$procdff$16"/><path d="M0,35 L5,30 L0,25" class="cell_$procdff$16"/><g s:x="31" s:y="10" s:pid="Q"/><g s:x="-1" s:y="30" s:pid="CLK"/><g s:x="-1" s:y="30" s:pid="C"/><g s:x="-1" s:y="10" s:pid="D"/><g s:x="15" s:y="40" s:pid="ARST"/><g s:x="15" s:y="40" s:pid="SRST"/></g><g s:type="generic" transform="translate(114,87)" s:width="30" s:height="40" id="cell_frequencyDivider"><text x="15" y="-4" class="nodelabel cell_frequencyDivider" s:attribute="ref">$paramod$f9b184fb67df44f750715b1007ecd389553f9fee\freqDiv</text><rect width="30" height="20" s:generic="body" class="cell_frequencyDivider"/><g transform="translate(0,10)" s:x="0" s:y="10" s:pid="in0" id="port_frequencyDivider~CLK_IN"><text x="-3" y="-4" class="inputPortLabel cell_frequencyDivider">CLK_IN</text></g><g transform="translate(30,10)" s:x="30" s:y="10" s:pid="out0" id="port_frequencyDivider~CLK_OUT"><text x="5" y="-4" style="fill:#000; stroke:none" class="cell_frequencyDivider">CLK_OUT</text></g></g><g s:type="inputExt" transform="translate(12,87.5)" s:width="30" s:height="20" id="cell_hwclk"><text x="15" y="-4" class="nodelabel cell_hwclk" s:attribute="ref">hwclk</text><s:alias val="$_inputExt_"/><path d="M0,0 L0,20 L15,20 L30,10 L15,0 Z" class="cell_hwclk"/><g s:x="30" s:y="10" s:pid="Y"/></g><g s:type="inputExt" transform="translate(114,22)" s:width="30" s:height="20" id="cell_pir_in"><text x="15" y="-4" class="nodelabel cell_pir_in" s:attribute="ref">pir_in</text><s:alias val="$_inputExt_"/><path d="M0,0 L0,20 L15,20 L30,10 L15,0 Z" class="cell_pir_in"/><g s:x="30" s:y="10" s:pid="Y"/></g><g s:type="outputExt" transform="translate(312,22)" s:width="30" s:height="20" id="cell_led_out"><text x="15" y="-4" class="nodelabel cell_led_out" s:attribute="ref">led_out</text><s:alias val="$_outputExt_"/><path d="M30,0 L30,20 L15,20 L0,10 L15,0 Z" class="cell_led_out"/><g s:x="0" s:y="10" s:pid="A"/></g><line x1="145" x2="220" y1="97.5" y2="97.5" class="net_5 width_1" style="stroke-width: 1"/><line x1="220" x2="220" y1="97.5" y2="52" class="net_5 width_1" style="stroke-width: 1"/><line x1="220" x2="245" y1="52" y2="52" class="net_5 width_1" style="stroke-width: 1"/><line x1="144" x2="245" y1="32" y2="32" class="net_3 width_1" style="stroke-width: 1"/><line x1="42" x2="114" y1="97.5" y2="97.5" class="net_2 width_1" style="stroke-width: 1"/><line x1="277" x2="312" y1="32" y2="32" class="net_4 width_1" style="stroke-width: 1"/></svg>