<svg xmlns="http://www.w3.org/2000/svg" xmlns:xlink="http://www.w3.org/1999/xlink" xmlns:s="https://github.com/nturley/netlistsvg" width="1479" height="1070.5">
  <style>svg {
    stroke:#000;
    fill:none;
  }
  text {
    fill:#000;
    stroke:none;
    font-size:10px;
    font-weight: bold;
    font-family: "Courier New", monospace;
  }
  .nodelabel {
    text-anchor: middle;
  }
  .inputPortLabel {
    text-anchor: end;
  }
  .splitjoinBody {
    fill:#000;
  }</style>
  <g s:type="add" transform="translate(997.6666666666666,818)" s:width="25" s:height="25" id="cell_$add$top.v:119$70">
    <s:alias val="$add"/>
    <circle r="12.5" cx="12.5" cy="12.5" class="cell_$add$top.v:119$70"/>
    <line x1="7.5" x2="17.5" y1="12.5" y2="12.5" class="cell_$add$top.v:119$70"/>
    <line x1="12.5" x2="12.5" y1="7.5" y2="17.5" class="cell_$add$top.v:119$70"/>
    <g s:x="3" s:y="5" s:pid="A"/>
    <g s:x="3" s:y="20" s:pid="B"/>
    <g s:x="25" s:y="12.5" s:pid="Y"/>
  </g>
  <g s:type="add" transform="translate(1064.3333333333333,84)" s:width="25" s:height="25" id="cell_$add$top.v:84$8">
    <s:alias val="$add"/>
    <circle r="12.5" cx="12.5" cy="12.5" class="cell_$add$top.v:84$8"/>
    <line x1="7.5" x2="17.5" y1="12.5" y2="12.5" class="cell_$add$top.v:84$8"/>
    <line x1="12.5" x2="12.5" y1="7.5" y2="17.5" class="cell_$add$top.v:84$8"/>
    <g s:x="3" s:y="5" s:pid="A"/>
    <g s:x="3" s:y="20" s:pid="B"/>
    <g s:x="25" s:y="12.5" s:pid="Y"/>
  </g>
  <g s:type="and" transform="translate(673.6666666666666,413)" s:width="30" s:height="25" id="cell_$and$top.v:0$68">
    <s:alias val="$and"/>
    <s:alias val="$logic_and"/>
    <s:alias val="$_AND_"/>
    <path d="M0,0 L0,25 L15,25 A15 12.5 0 0 0 15,0 Z" class="cell_$and$top.v:0$68"/>
    <g s:x="0" s:y="5" s:pid="A"/>
    <g s:x="0" s:y="20" s:pid="B"/>
    <g s:x="30" s:y="12.5" s:pid="Y"/>
  </g>
  <g s:type="eq" transform="translate(929.3333333333334,115)" s:width="25" s:height="25" id="cell_$eq$top.v:85$9">
    <s:alias val="$eq"/>
    <circle r="12.5" cx="12.5" cy="12.5" class="cell_$eq$top.v:85$9"/>
    <line x1="7.5" x2="17.5" y1="10" y2="10" class="cell_$eq$top.v:85$9"/>
    <line x1="7.5" x2="17.5" y1="15" y2="15" class="cell_$eq$top.v:85$9"/>
    <g s:x="3" s:y="5" s:pid="A"/>
    <g s:x="3" s:y="20" s:pid="B"/>
    <g s:x="25" s:y="12.5" s:pid="Y"/>
  </g>
  <g s:type="lt" transform="translate(821.3333333333334,613)" s:width="25" s:height="25" id="cell_$lt$top.v:116$41">
    <s:alias val="$lt"/>
    <circle r="12.5" cx="12.5" cy="12.5" class="cell_$lt$top.v:116$41"/>
    <line x1="7.5" x2="17.5" y1="12.5" y2="7.5" class="cell_$lt$top.v:116$41"/>
    <line x1="7.5" x2="17.5" y1="12.5" y2="17.5" class="cell_$lt$top.v:116$41"/>
    <g s:x="3" s:y="5" s:pid="A"/>
    <g s:x="3" s:y="20" s:pid="B"/>
    <g s:x="25" s:y="12.5" s:pid="Y"/>
  </g>
  <g s:type="generic" transform="translate(276,503)" s:width="30" s:height="40" id="cell_$neg$top.v:0$61">
    <text x="15" y="-4" class="nodelabel cell_$neg$top.v:0$61" s:attribute="ref">$neg</text>
    <rect width="30" height="20" s:generic="body" class="cell_$neg$top.v:0$61"/>
    <g transform="translate(0,10)" s:x="0" s:y="10" s:pid="in0" id="port_$neg$top.v:0$61~A">
      <text x="-3" y="-4" class="inputPortLabel cell_$neg$top.v:0$61">A</text>
    </g>
    <g transform="translate(30,10)" s:x="30" s:y="10" s:pid="out0" id="port_$neg$top.v:0$61~Y">
      <text x="5" y="-4" style="fill:#000; stroke:none" class="cell_$neg$top.v:0$61">Y</text>
    </g>
  </g>
  <g s:type="not" transform="translate(565,423)" s:width="30" s:height="20" id="cell_$not$top.v:0$67">
    <s:alias val="$_NOT_"/>
    <s:alias val="$not"/>
    <s:alias val="$logic_not"/>
    <path d="M0,0 L0,20 L20,10 Z" class="cell_$not$top.v:0$67"/>
    <circle cx="23" cy="10" r="3" class="cell_$not$top.v:0$67"/>
    <g s:x="0" s:y="10" s:pid="A"/>
    <g s:x="25" s:y="10" s:pid="Y"/>
  </g>
  <g s:type="not" transform="translate(926,258)" s:width="30" s:height="20" id="cell_$not$top.v:86$10">
    <s:alias val="$_NOT_"/>
    <s:alias val="$not"/>
    <s:alias val="$logic_not"/>
    <path d="M0,0 L0,20 L20,10 Z" class="cell_$not$top.v:86$10"/>
    <circle cx="23" cy="10" r="3" class="cell_$not$top.v:86$10"/>
    <g s:x="0" s:y="10" s:pid="A"/>
    <g s:x="25" s:y="10" s:pid="Y"/>
  </g>
  <g s:type="or" transform="translate(819.6666666666666,473.5)" s:width="30" s:height="25" id="cell_$or$top.v:0$69">
    <s:alias val="$or"/>
    <s:alias val="$logic_or"/>
    <s:alias val="$_OR_"/>
    <path d="M0,25 L0,25 L15,25 A15 12.5 0 0 0 15,0 L0,0" class="cell_$or$top.v:0$69"/>
    <path d="M0,0 A30 25 0 0 1 0,25" class="cell_$or$top.v:0$69"/>
    <g s:x="3" s:y="5" s:pid="A"/>
    <g s:x="3" s:y="20" s:pid="B"/>
    <g s:x="30" s:y="12.5" s:pid="Y"/>
  </g>
  <g s:type="dff" transform="translate(1061,456)" s:width="30" s:height="40" id="cell_$procdff$298">
    <s:alias val="$dff"/>
    <s:alias val="$_DFF_"/>
    <s:alias val="$_DFF_P_"/>
    <rect width="30" height="40" x="0" y="0" class="cell_$procdff$298"/>
    <path d="M0,35 L5,30 L0,25" class="cell_$procdff$298"/>
    <g s:x="30" s:y="10" s:pid="Q"/>
    <g s:x="0" s:y="30" s:pid="CLK"/>
    <g s:x="0" s:y="30" s:pid="C"/>
    <g s:x="0" s:y="10" s:pid="D"/>
  </g>
  <g s:type="generic" transform="translate(814,734)" s:width="30" s:height="40" id="cell_$procdff$299">
    <text x="15" y="-4" class="nodelabel cell_$procdff$299" s:attribute="ref">$adff</text>
    <rect width="30" height="60" s:generic="body" class="cell_$procdff$299"/>
    <g transform="translate(0,10)" s:x="0" s:y="10" s:pid="in0" id="port_$procdff$299~ARST">
      <text x="-3" y="-4" class="inputPortLabel cell_$procdff$299">ARST</text>
    </g>
    <g transform="translate(0,30)" s:x="0" s:y="10" s:pid="in0" id="port_$procdff$299~CLK">
      <text x="-3" y="-4" class="inputPortLabel cell_$procdff$299">CLK</text>
    </g>
    <g transform="translate(0,50)" s:x="0" s:y="10" s:pid="in0" id="port_$procdff$299~D">
      <text x="-3" y="-4" class="inputPortLabel cell_$procdff$299">D</text>
    </g>
    <g transform="translate(30,10)" s:x="30" s:y="10" s:pid="out0" id="port_$procdff$299~Q">
      <text x="5" y="-4" style="fill:#000; stroke:none" class="cell_$procdff$299">Q</text>
    </g>
  </g>
  <g s:type="generic" transform="translate(102,796.5)" s:width="30" s:height="40" id="cell_$procdff$300">
    <text x="15" y="-4" class="nodelabel cell_$procdff$300" s:attribute="ref">$adff</text>
    <rect width="30" height="60" s:generic="body" class="cell_$procdff$300"/>
    <g transform="translate(0,10)" s:x="0" s:y="10" s:pid="in0" id="port_$procdff$300~ARST">
      <text x="-3" y="-4" class="inputPortLabel cell_$procdff$300">ARST</text>
    </g>
    <g transform="translate(0,30)" s:x="0" s:y="10" s:pid="in0" id="port_$procdff$300~CLK">
      <text x="-3" y="-4" class="inputPortLabel cell_$procdff$300">CLK</text>
    </g>
    <g transform="translate(0,50)" s:x="0" s:y="10" s:pid="in0" id="port_$procdff$300~D">
      <text x="-3" y="-4" class="inputPortLabel cell_$procdff$300">D</text>
    </g>
    <g transform="translate(30,10)" s:x="30" s:y="10" s:pid="out0" id="port_$procdff$300~Q">
      <text x="5" y="-4" style="fill:#000; stroke:none" class="cell_$procdff$300">Q</text>
    </g>
  </g>
  <g s:type="dff" transform="translate(1061,258)" s:width="30" s:height="40" id="cell_$procdff$310">
    <s:alias val="$dff"/>
    <s:alias val="$_DFF_"/>
    <s:alias val="$_DFF_P_"/>
    <rect width="30" height="40" x="0" y="0" class="cell_$procdff$310"/>
    <path d="M0,35 L5,30 L0,25" class="cell_$procdff$310"/>
    <g s:x="30" s:y="10" s:pid="Q"/>
    <g s:x="0" s:y="30" s:pid="CLK"/>
    <g s:x="0" s:y="30" s:pid="C"/>
    <g s:x="0" s:y="10" s:pid="D"/>
  </g>
  <g s:type="dff" transform="translate(1367,43)" s:width="30" s:height="40" id="cell_$procdff$311">
    <s:alias val="$dff"/>
    <s:alias val="$_DFF_"/>
    <s:alias val="$_DFF_P_"/>
    <rect width="30" height="40" x="0" y="0" class="cell_$procdff$311"/>
    <path d="M0,35 L5,30 L0,25" class="cell_$procdff$311"/>
    <g s:x="30" s:y="10" s:pid="Q"/>
    <g s:x="0" s:y="30" s:pid="CLK"/>
    <g s:x="0" s:y="30" s:pid="C"/>
    <g s:x="0" s:y="10" s:pid="D"/>
  </g>
  <g s:type="mux" transform="translate(932.6666666666666,456)" s:width="20" s:height="40" id="cell_$procmux$169">
    <s:alias val="$pmux"/>
    <s:alias val="$mux"/>
    <s:alias val="$_MUX_"/>
    <path d="M0,0 L20,10 L20,30 L0,40 Z" class="cell_$procmux$169"/>
    <g s:x="0" s:y="10" s:pid="A"/>
    <g s:x="0" s:y="30" s:pid="B"/>
    <g s:x="10" s:y="35" s:pid="S"/>
    <g s:x="20" s:y="20" s:pid="Y"/>
  </g>
  <g s:type="eq" transform="translate(927.6666666666666,673)" s:width="25" s:height="25" id="cell_$procmux$172_CMP0">
    <s:alias val="$eq"/>
    <circle r="12.5" cx="12.5" cy="12.5" class="cell_$procmux$172_CMP0"/>
    <line x1="7.5" x2="17.5" y1="10" y2="10" class="cell_$procmux$172_CMP0"/>
    <line x1="7.5" x2="17.5" y1="15" y2="15" class="cell_$procmux$172_CMP0"/>
    <g s:x="3" s:y="5" s:pid="A"/>
    <g s:x="3" s:y="20" s:pid="B"/>
    <g s:x="25" s:y="12.5" s:pid="Y"/>
  </g>
  <g s:type="mux" transform="translate(1002.6666666666666,446)" s:width="20" s:height="40" id="cell_$procmux$224">
    <s:alias val="$pmux"/>
    <s:alias val="$mux"/>
    <s:alias val="$_MUX_"/>
    <path d="M0,0 L20,10 L20,30 L0,40 Z" class="cell_$procmux$224"/>
    <g s:x="0" s:y="10" s:pid="A"/>
    <g s:x="0" s:y="30" s:pid="B"/>
    <g s:x="10" s:y="35" s:pid="S"/>
    <g s:x="20" s:y="20" s:pid="Y"/>
  </g>
  <g s:type="mux" transform="translate(1064.3333333333333,800.5)" s:width="20" s:height="40" id="cell_$procmux$257">
    <s:alias val="$pmux"/>
    <s:alias val="$mux"/>
    <s:alias val="$_MUX_"/>
    <path d="M0,0 L20,10 L20,30 L0,40 Z" class="cell_$procmux$257"/>
    <g s:x="0" s:y="10" s:pid="A"/>
    <g s:x="0" s:y="30" s:pid="B"/>
    <g s:x="10" s:y="35" s:pid="S"/>
    <g s:x="20" s:y="20" s:pid="Y"/>
  </g>
  <g s:type="mux" transform="translate(1367,910)" s:width="20" s:height="40" id="cell_$procmux$259">
    <s:alias val="$pmux"/>
    <s:alias val="$mux"/>
    <s:alias val="$_MUX_"/>
    <path d="M0,0 L20,10 L20,30 L0,40 Z" class="cell_$procmux$259"/>
    <g s:x="0" s:y="10" s:pid="A"/>
    <g s:x="0" s:y="30" s:pid="B"/>
    <g s:x="10" s:y="35" s:pid="S"/>
    <g s:x="20" s:y="20" s:pid="Y"/>
  </g>
  <g s:type="not" transform="translate(1061,875)" s:width="30" s:height="20" id="cell_$procmux$261_CMP0">
    <s:alias val="$_NOT_"/>
    <s:alias val="$not"/>
    <s:alias val="$logic_not"/>
    <path d="M0,0 L0,20 L20,10 Z" class="cell_$procmux$261_CMP0"/>
    <circle cx="23" cy="10" r="3" class="cell_$procmux$261_CMP0"/>
    <g s:x="0" s:y="10" s:pid="A"/>
    <g s:x="25" s:y="10" s:pid="Y"/>
  </g>
  <g s:type="mux" transform="translate(1064.3333333333333,531)" s:width="20" s:height="40" id="cell_$procmux$265">
    <s:alias val="$pmux"/>
    <s:alias val="$mux"/>
    <s:alias val="$_MUX_"/>
    <path d="M0,0 L20,10 L20,30 L0,40 Z" class="cell_$procmux$265"/>
    <g s:x="0" s:y="10" s:pid="A"/>
    <g s:x="0" s:y="30" s:pid="B"/>
    <g s:x="10" s:y="35" s:pid="S"/>
    <g s:x="20" s:y="20" s:pid="Y"/>
  </g>
  <g s:type="mux" transform="translate(1367,590.5)" s:width="20" s:height="40" id="cell_$procmux$267">
    <s:alias val="$pmux"/>
    <s:alias val="$mux"/>
    <s:alias val="$_MUX_"/>
    <path d="M0,0 L20,10 L20,30 L0,40 Z" class="cell_$procmux$267"/>
    <g s:x="0" s:y="10" s:pid="A"/>
    <g s:x="0" s:y="30" s:pid="B"/>
    <g s:x="10" s:y="35" s:pid="S"/>
    <g s:x="20" s:y="20" s:pid="Y"/>
  </g>
  <g s:type="eq" transform="translate(1062.6666666666667,693)" s:width="25" s:height="25" id="cell_$procmux$269_CMP0">
    <s:alias val="$eq"/>
    <circle r="12.5" cx="12.5" cy="12.5" class="cell_$procmux$269_CMP0"/>
    <line x1="7.5" x2="17.5" y1="10" y2="10" class="cell_$procmux$269_CMP0"/>
    <line x1="7.5" x2="17.5" y1="15" y2="15" class="cell_$procmux$269_CMP0"/>
    <g s:x="3" s:y="5" s:pid="A"/>
    <g s:x="3" s:y="20" s:pid="B"/>
    <g s:x="25" s:y="12.5" s:pid="Y"/>
  </g>
  <g s:type="mux" transform="translate(1190,23)" s:width="20" s:height="40" id="cell_$procmux$276">
    <s:alias val="$pmux"/>
    <s:alias val="$mux"/>
    <s:alias val="$_MUX_"/>
    <path d="M0,0 L20,10 L20,30 L0,40 Z" class="cell_$procmux$276"/>
    <g s:x="0" s:y="10" s:pid="A"/>
    <g s:x="0" s:y="30" s:pid="B"/>
    <g s:x="10" s:y="35" s:pid="S"/>
    <g s:x="20" s:y="20" s:pid="Y"/>
  </g>
  <g s:type="mux" transform="translate(1002.6666666666666,177)" s:width="20" s:height="40" id="cell_$procmux$280">
    <s:alias val="$pmux"/>
    <s:alias val="$mux"/>
    <s:alias val="$_MUX_"/>
    <path d="M0,0 L20,10 L20,30 L0,40 Z" class="cell_$procmux$280"/>
    <g s:x="0" s:y="10" s:pid="A"/>
    <g s:x="0" s:y="30" s:pid="B"/>
    <g s:x="10" s:y="35" s:pid="S"/>
    <g s:x="20" s:y="20" s:pid="Y"/>
  </g>
  <g s:type="generic" transform="translate(413,422.5)" s:width="30" s:height="40" id="cell_$shift$top.v:0$62">
    <text x="15" y="-4" class="nodelabel cell_$shift$top.v:0$62" s:attribute="ref">$shift</text>
    <rect width="30" height="40" s:generic="body" class="cell_$shift$top.v:0$62"/>
    <g transform="translate(0,10)" s:x="0" s:y="10" s:pid="in0" id="port_$shift$top.v:0$62~A">
      <text x="-3" y="-4" class="inputPortLabel cell_$shift$top.v:0$62">A</text>
    </g>
    <g transform="translate(0,30)" s:x="0" s:y="10" s:pid="in0" id="port_$shift$top.v:0$62~B">
      <text x="-3" y="-4" class="inputPortLabel cell_$shift$top.v:0$62">B</text>
    </g>
    <g transform="translate(30,10)" s:x="30" s:y="10" s:pid="out0" id="port_$shift$top.v:0$62~Y">
      <text x="5" y="-4" style="fill:#000; stroke:none" class="cell_$shift$top.v:0$62">Y</text>
    </g>
  </g>
  <g s:type="generic" transform="translate(652,483)" s:width="30" s:height="40" id="cell_$shift$top.v:0$66">
    <text x="15" y="-4" class="nodelabel cell_$shift$top.v:0$66" s:attribute="ref">$shift</text>
    <rect width="30" height="40" s:generic="body" class="cell_$shift$top.v:0$66"/>
    <g transform="translate(0,10)" s:x="0" s:y="10" s:pid="in0" id="port_$shift$top.v:0$66~A">
      <text x="-3" y="-4" class="inputPortLabel cell_$shift$top.v:0$66">A</text>
    </g>
    <g transform="translate(0,30)" s:x="0" s:y="10" s:pid="in0" id="port_$shift$top.v:0$66~B">
      <text x="-3" y="-4" class="inputPortLabel cell_$shift$top.v:0$66">B</text>
    </g>
    <g transform="translate(30,10)" s:x="30" s:y="10" s:pid="out0" id="port_$shift$top.v:0$66~Y">
      <text x="5" y="-4" style="fill:#000; stroke:none" class="cell_$shift$top.v:0$66">Y</text>
    </g>
  </g>
  <g s:type="sub" transform="translate(209,501)" s:width="25" s:height="25" id="cell_$sub$top.v:0$60">
    <s:alias val="$sub"/>
    <circle r="12.5" cx="12.5" cy="12.5" class="cell_$sub$top.v:0$60"/>
    <line x1="7.5" x2="17.5" y1="12.5" y2="12.5" class="cell_$sub$top.v:0$60"/>
    <g s:x="3" s:y="5" s:pid="A"/>
    <g s:x="3" s:y="20" s:pid="B"/>
    <g s:x="25" s:y="12.5" s:pid="Y"/>
  </g>
  <g s:type="generic" transform="translate(1175,415.5)" s:width="30" s:height="40" id="cell_comunication_module">
    <text x="15" y="-4" class="nodelabel cell_comunication_module" s:attribute="ref">ComunicationModule</text>
    <rect width="30" height="60" s:generic="body" class="cell_comunication_module"/>
    <g transform="translate(0,10)" s:x="0" s:y="10" s:pid="in0" id="port_comunication_module~clk">
      <text x="-3" y="-4" class="inputPortLabel cell_comunication_module">clk</text>
    </g>
    <g transform="translate(0,30)" s:x="0" s:y="10" s:pid="in0" id="port_comunication_module~senddata">
      <text x="-3" y="-4" class="inputPortLabel cell_comunication_module">senddata</text>
    </g>
    <g transform="translate(0,50)" s:x="0" s:y="10" s:pid="in0" id="port_comunication_module~txbyte">
      <text x="-3" y="-4" class="inputPortLabel cell_comunication_module">txbyte</text>
    </g>
    <g transform="translate(30,10)" s:x="30" s:y="10" s:pid="out0" id="port_comunication_module~tx">
      <text x="5" y="-4" style="fill:#000; stroke:none" class="cell_comunication_module">tx</text>
    </g>
    <g transform="translate(30,30)" s:x="30" s:y="10" s:pid="out0" id="port_comunication_module~txdone">
      <text x="5" y="-4" style="fill:#000; stroke:none" class="cell_comunication_module">txdone</text>
    </g>
  </g>
  <g s:type="generic" transform="translate(1367,186.5)" s:width="30" s:height="40" id="cell_read_module">
    <text x="15" y="-4" class="nodelabel cell_read_module" s:attribute="ref">ReadModule</text>
    <rect width="30" height="60" s:generic="body" class="cell_read_module"/>
    <g transform="translate(0,10)" s:x="0" s:y="10" s:pid="in0" id="port_read_module~clk">
      <text x="-3" y="-4" class="inputPortLabel cell_read_module">clk</text>
    </g>
    <g transform="translate(0,30)" s:x="0" s:y="10" s:pid="in0" id="port_read_module~in_data">
      <text x="-3" y="-4" class="inputPortLabel cell_read_module">in_data</text>
    </g>
    <g transform="translate(0,50)" s:x="0" s:y="10" s:pid="in0" id="port_read_module~rst">
      <text x="-3" y="-4" class="inputPortLabel cell_read_module">rst</text>
    </g>
    <g transform="translate(30,10)" s:x="30" s:y="10" s:pid="out0" id="port_read_module~out_data">
      <text x="5" y="-4" style="fill:#000; stroke:none" class="cell_read_module">out_data</text>
    </g>
  </g>
  <g s:type="inputExt" transform="translate(12,360)" s:width="30" s:height="20" id="cell_clk">
    <text x="15" y="-4" class="nodelabel cell_clk" s:attribute="ref">clk</text>
    <s:alias val="$_inputExt_"/>
    <path d="M0,0 L0,20 L15,20 L30,10 L15,0 Z" class="cell_clk"/>
    <g s:x="28" s:y="10" s:pid="Y"/>
  </g>
  <g s:type="inputExt" transform="translate(550,340)" s:width="30" s:height="20" id="cell_dht11_data">
    <text x="15" y="-4" class="nodelabel cell_dht11_data" s:attribute="ref">dht11_data</text>
    <s:alias val="$_inputExt_"/>
    <path d="M0,0 L0,20 L15,20 L30,10 L15,0 Z" class="cell_dht11_data"/>
    <g s:x="28" s:y="10" s:pid="Y"/>
  </g>
  <g s:type="outputExt" transform="translate(1367,416)" s:width="30" s:height="20" id="cell_ftdi_tx">
    <text x="15" y="-4" class="nodelabel cell_ftdi_tx" s:attribute="ref">ftdi_tx</text>
    <s:alias val="$_outputExt_"/>
    <path d="M30,0 L30,20 L15,20 L0,10 L15,0 Z" class="cell_ftdi_tx"/>
    <g s:x="0" s:y="10" s:pid="A"/>
  </g>
  <g s:type="constant" transform="translate(276,423)" s:width="30" s:height="20" id="cell_1">
    <text x="15" y="-4" class="nodelabel cell_1" s:attribute="ref">1</text>
    <s:alias val="$_constant_"/>
    <rect width="30" height="20" class="cell_1"/>
    <g s:x="30" s:y="10" s:pid="Y"/>
  </g>
  <g s:type="constant" transform="translate(814,125)" s:width="30" s:height="20" id="cell_10100010110">
    <text x="15" y="-4" class="nodelabel cell_10100010110" s:attribute="ref">0x516</text>
    <s:alias val="$_constant_"/>
    <rect width="30" height="20" class="cell_10100010110"/>
    <g s:x="30" s:y="10" s:pid="Y"/>
  </g>
  <g s:type="constant" transform="translate(652,623)" s:width="30" s:height="20" id="cell_1000">
    <text x="15" y="-4" class="nodelabel cell_1000" s:attribute="ref">0x8</text>
    <s:alias val="$_constant_"/>
    <rect width="30" height="20" class="cell_1000"/>
    <g s:x="30" s:y="10" s:pid="Y"/>
  </g>
  <g s:type="constant" transform="translate(12,734.5)" s:width="30" s:height="20" id="cell_0">
    <text x="15" y="-4" class="nodelabel cell_0" s:attribute="ref">0</text>
    <s:alias val="$_constant_"/>
    <rect width="30" height="20" class="cell_0"/>
    <g s:x="30" s:y="10" s:pid="Y"/>
  </g>
  <g s:type="constant" transform="translate(814,683)" s:width="30" s:height="20" id="cell_10">
    <text x="15" y="-4" class="nodelabel cell_10" s:attribute="ref">10</text>
    <s:alias val="$_constant_"/>
    <rect width="30" height="20" class="cell_10"/>
    <g s:x="30" s:y="10" s:pid="Y"/>
  </g>
  <g s:type="constant" transform="translate(1061,940)" s:width="30" s:height="20" id="cell_00000000">
    <text x="15" y="-4" class="nodelabel cell_00000000" s:attribute="ref">0x0</text>
    <s:alias val="$_constant_"/>
    <rect width="30" height="20" class="cell_00000000"/>
    <g s:x="30" s:y="10" s:pid="Y"/>
  </g>
  <g s:type="constant" transform="translate(996,391)" s:width="30" s:height="20" id="cell_0011">
    <text x="15" y="-4" class="nodelabel cell_0011" s:attribute="ref">0x3</text>
    <s:alias val="$_constant_"/>
    <rect width="30" height="20" class="cell_0011"/>
    <g s:x="30" s:y="10" s:pid="Y"/>
  </g>
  <g s:type="constant" transform="translate(1175,543)" s:width="30" s:height="20" id="cell_0000">
    <text x="15" y="-4" class="nodelabel cell_0000" s:attribute="ref">0x0</text>
    <s:alias val="$_constant_"/>
    <rect width="30" height="20" class="cell_0000"/>
    <g s:x="30" s:y="10" s:pid="Y"/>
  </g>
  <g s:type="constant" transform="translate(1061,620.5)" s:width="30" s:height="20" id="cell_00010010">
    <text x="15" y="-4" class="nodelabel cell_00010010" s:attribute="ref">0x12</text>
    <s:alias val="$_constant_"/>
    <rect width="30" height="20" class="cell_00010010"/>
    <g s:x="30" s:y="10" s:pid="Y"/>
  </g>
  <g s:type="constant" transform="translate(1061,43)" s:width="30" s:height="20" id="cell_00000000000000000000000000000000">
    <text x="15" y="-4" class="nodelabel cell_00000000000000000000000000000000" s:attribute="ref">0x0</text>
    <s:alias val="$_constant_"/>
    <rect width="30" height="20" class="cell_00000000000000000000000000000000"/>
    <g s:x="30" s:y="10" s:pid="Y"/>
  </g>
  <g s:type="join" transform="translate(1195.3333333333333,919.5)" s:width="4" s:height="40" id="cell_$join$,244,245,246,247,248,249,250,251,281,282,283,284,285,286,287,288,">
    <rect width="5" height="40" class="splitjoinBody" s:generic="body"/>
    <s:alias val="$_join_"/>
    <g s:x="5" s:y="20" s:pid="out"/>
    <g transform="translate(0,10)" s:x="0" s:y="10" s:pid="in0">
      <text x="-3" y="-4" class="inputPortLabel">0:7</text>
    </g>
    <g transform="translate(0,30)" s:x="0" s:y="10" s:pid="in0">
      <text x="-3" y="-4" class="inputPortLabel">8:15</text>
    </g>
  </g>
  <g s:type="join" transform="translate(1195.3333333333333,996.5)" s:width="4" s:height="40" id="cell_$join$,243,252,">
    <rect width="5" height="40" class="splitjoinBody" s:generic="body"/>
    <s:alias val="$_join_"/>
    <g s:x="5" s:y="20" s:pid="out"/>
    <g transform="translate(0,10)" s:x="0" s:y="10" s:pid="in0">
      <text x="-3" y="-4" class="inputPortLabel">0</text>
    </g>
    <g transform="translate(0,30)" s:x="0" s:y="10" s:pid="in0">
      <text x="-3" y="-4" class="inputPortLabel">1</text>
    </g>
  </g>
  <g s:type="join" transform="translate(1195.3333333333333,600)" s:width="4" s:height="40" id="cell_$join$,253,254,255,256,297,298,299,300,301,302,303,304,">
    <rect width="5" height="40" class="splitjoinBody" s:generic="body"/>
    <s:alias val="$_join_"/>
    <g s:x="5" s:y="20" s:pid="out"/>
    <g transform="translate(0,10)" s:x="0" s:y="10" s:pid="in0">
      <text x="-3" y="-4" class="inputPortLabel">0:3</text>
    </g>
    <g transform="translate(0,30)" s:x="0" s:y="10" s:pid="in0">
      <text x="-3" y="-4" class="inputPortLabel">4:11</text>
    </g>
  </g>
  <g s:type="join" transform="translate(1190.25,675)" s:width="4" s:height="40" id="cell_$join$,243,257,252,">
    <rect width="5" height="60" class="splitjoinBody" s:generic="body"/>
    <s:alias val="$_join_"/>
    <g s:x="5" s:y="20" s:pid="out"/>
    <g transform="translate(0,10)" s:x="0" s:y="10" s:pid="in0">
      <text x="-3" y="-4" class="inputPortLabel">0</text>
    </g>
    <g transform="translate(0,30)" s:x="0" s:y="10" s:pid="in0">
      <text x="-3" y="-4" class="inputPortLabel">1</text>
    </g>
    <g transform="translate(0,50)" s:x="0" s:y="10" s:pid="in0">
      <text x="-3" y="-4" class="inputPortLabel">2</text>
    </g>
  </g>
  <line x1="133" x2="986" y1="807" y2="807" class="net_5,6,7,8,9,10,11,12"/>
  <line x1="986" x2="986" y1="807" y2="823" class="net_5,6,7,8,9,10,11,12"/>
  <circle cx="986" cy="807" r="2" style="fill:#000" class="net_5,6,7,8,9,10,11,12"/>
  <line x1="986" x2="1000.6666666666666" y1="823" y2="823" class="net_5,6,7,8,9,10,11,12"/>
  <line x1="133" x2="184" y1="807" y2="807" class="net_5,6,7,8,9,10,11,12"/>
  <line x1="184" x2="184" y1="807" y2="602" class="net_5,6,7,8,9,10,11,12"/>
  <line x1="184" x2="764" y1="602" y2="602" class="net_5,6,7,8,9,10,11,12"/>
  <line x1="764" x2="764" y1="602" y2="618" class="net_5,6,7,8,9,10,11,12"/>
  <circle cx="184" cy="807" r="2" style="fill:#000" class="net_5,6,7,8,9,10,11,12"/>
  <circle cx="184" cy="602" r="2" style="fill:#000" class="net_5,6,7,8,9,10,11,12"/>
  <line x1="764" x2="824.3333333333334" y1="618" y2="618" class="net_5,6,7,8,9,10,11,12"/>
  <line x1="133" x2="1036" y1="807" y2="807" class="net_5,6,7,8,9,10,11,12"/>
  <line x1="1036" x2="1036" y1="807" y2="810.5" class="net_5,6,7,8,9,10,11,12"/>
  <line x1="1036" x2="1064.3333333333333" y1="810.5" y2="810.5" class="net_5,6,7,8,9,10,11,12"/>
  <line x1="133" x2="376" y1="807" y2="807" class="net_5,6,7,8,9,10,11,12"/>
  <line x1="376" x2="376" y1="807" y2="864" class="net_5,6,7,8,9,10,11,12"/>
  <line x1="376" x2="1299" y1="864" y2="864" class="net_5,6,7,8,9,10,11,12"/>
  <line x1="1299" x2="1299" y1="864" y2="920" class="net_5,6,7,8,9,10,11,12"/>
  <circle cx="376" cy="807" r="2" style="fill:#000" class="net_5,6,7,8,9,10,11,12"/>
  <line x1="1299" x2="1367" y1="920" y2="920" class="net_5,6,7,8,9,10,11,12"/>
  <line x1="133" x2="184" y1="807" y2="807" class="net_5,6,7,8,9,10,11,12"/>
  <line x1="184" x2="184" y1="807" y2="506" class="net_5,6,7,8,9,10,11,12"/>
  <line x1="184" x2="212" y1="506" y2="506" class="net_5,6,7,8,9,10,11,12"/>
  <line x1="306" x2="386" y1="433" y2="433" class="net_260"/>
  <line x1="386" x2="386" y1="433" y2="838" class="net_260"/>
  <circle cx="386" cy="433" r="2" style="fill:#000" class="net_260"/>
  <line x1="386" x2="1000.6666666666666" y1="838" y2="838" class="net_260"/>
  <line x1="306" x2="386" y1="433" y2="433" class="net_260"/>
  <line x1="386" x2="386" y1="433" y2="104" class="net_260"/>
  <line x1="386" x2="1067.3333333333333" y1="104" y2="104" class="net_260"/>
  <line x1="306" x2="386" y1="433" y2="433" class="net_260"/>
  <line x1="386" x2="386" y1="433" y2="713" class="net_260"/>
  <circle cx="386" cy="713" r="2" style="fill:#000" class="net_260"/>
  <line x1="386" x2="1065.6666666666667" y1="713" y2="713" class="net_260"/>
  <line x1="306" x2="413" y1="433" y2="433" class="net_260"/>
  <line x1="306" x2="386" y1="433" y2="433" class="net_260"/>
  <line x1="386" x2="386" y1="433" y2="319" class="net_260"/>
  <line x1="386" x2="1101" y1="319" y2="319" class="net_260"/>
  <line x1="1101" x2="1101" y1="319" y2="446" class="net_260"/>
  <circle cx="386" cy="319" r="2" style="fill:#000" class="net_260"/>
  <line x1="1101" x2="1175" y1="446" y2="446" class="net_260"/>
  <line x1="1397" x2="1457" y1="53" y2="53" class="net_21,22,23,24,25,26,27,28,29,30,31,32,33,34,35,36,37,38,39,40,41,42,43,44,45,46,47,48,49,50,51,52"/>
  <line x1="1457" x2="1457" y1="53" y2="144" class="net_21,22,23,24,25,26,27,28,29,30,31,32,33,34,35,36,37,38,39,40,41,42,43,44,45,46,47,48,49,50,51,52"/>
  <line x1="1457" x2="1046" y1="144" y2="144" class="net_21,22,23,24,25,26,27,28,29,30,31,32,33,34,35,36,37,38,39,40,41,42,43,44,45,46,47,48,49,50,51,52"/>
  <line x1="1046" x2="1046" y1="144" y2="89" class="net_21,22,23,24,25,26,27,28,29,30,31,32,33,34,35,36,37,38,39,40,41,42,43,44,45,46,47,48,49,50,51,52"/>
  <line x1="1046" x2="1067.3333333333333" y1="89" y2="89" class="net_21,22,23,24,25,26,27,28,29,30,31,32,33,34,35,36,37,38,39,40,41,42,43,44,45,46,47,48,49,50,51,52"/>
  <line x1="1397" x2="1457" y1="53" y2="53" class="net_21,22,23,24,25,26,27,28,29,30,31,32,33,34,35,36,37,38,39,40,41,42,43,44,45,46,47,48,49,50,51,52"/>
  <line x1="1457" x2="1457" y1="53" y2="12" class="net_21,22,23,24,25,26,27,28,29,30,31,32,33,34,35,36,37,38,39,40,41,42,43,44,45,46,47,48,49,50,51,52"/>
  <line x1="1457" x2="916" y1="12" y2="12" class="net_21,22,23,24,25,26,27,28,29,30,31,32,33,34,35,36,37,38,39,40,41,42,43,44,45,46,47,48,49,50,51,52"/>
  <line x1="916" x2="916" y1="12" y2="120" class="net_21,22,23,24,25,26,27,28,29,30,31,32,33,34,35,36,37,38,39,40,41,42,43,44,45,46,47,48,49,50,51,52"/>
  <circle cx="1457" cy="53" r="2" style="fill:#000" class="net_21,22,23,24,25,26,27,28,29,30,31,32,33,34,35,36,37,38,39,40,41,42,43,44,45,46,47,48,49,50,51,52"/>
  <line x1="916" x2="932.3333333333334" y1="120" y2="120" class="net_21,22,23,24,25,26,27,28,29,30,31,32,33,34,35,36,37,38,39,40,41,42,43,44,45,46,47,48,49,50,51,52"/>
  <line x1="1091" x2="1111" y1="466" y2="466" class="net_85,86,87,88,89,90,91,92"/>
  <line x1="1111" x2="1111" y1="466" y2="592" class="net_85,86,87,88,89,90,91,92"/>
  <line x1="1111" x2="620" y1="592" y2="592" class="net_85,86,87,88,89,90,91,92"/>
  <line x1="620" x2="620" y1="592" y2="418" class="net_85,86,87,88,89,90,91,92"/>
  <line x1="620" x2="673.6666666666666" y1="418" y2="418" class="net_85,86,87,88,89,90,91,92"/>
  <line x1="1091" x2="1111" y1="466" y2="466" class="net_85,86,87,88,89,90,91,92"/>
  <line x1="1111" x2="1111" y1="466" y2="592" class="net_85,86,87,88,89,90,91,92"/>
  <line x1="1111" x2="896" y1="592" y2="592" class="net_85,86,87,88,89,90,91,92"/>
  <line x1="896" x2="896" y1="592" y2="466" class="net_85,86,87,88,89,90,91,92"/>
  <circle cx="896" cy="592" r="2" style="fill:#000" class="net_85,86,87,88,89,90,91,92"/>
  <line x1="896" x2="932.6666666666666" y1="466" y2="466" class="net_85,86,87,88,89,90,91,92"/>
  <line x1="1091" x2="1111" y1="466" y2="466" class="net_85,86,87,88,89,90,91,92"/>
  <line x1="1111" x2="1111" y1="466" y2="592" class="net_85,86,87,88,89,90,91,92"/>
  <line x1="1111" x2="966" y1="592" y2="592" class="net_85,86,87,88,89,90,91,92"/>
  <line x1="966" x2="966" y1="592" y2="456" class="net_85,86,87,88,89,90,91,92"/>
  <circle cx="966" cy="592" r="2" style="fill:#000" class="net_85,86,87,88,89,90,91,92"/>
  <circle cx="1111" cy="466" r="2" style="fill:#000" class="net_85,86,87,88,89,90,91,92"/>
  <line x1="966" x2="1002.6666666666666" y1="456" y2="456" class="net_85,86,87,88,89,90,91,92"/>
  <line x1="1091" x2="1175" y1="466" y2="466" class="net_85,86,87,88,89,90,91,92"/>
  <line x1="590" x2="673.6666666666666" y1="433" y2="433" class="net_93,94,95,96,97,98,99,100"/>
  <line x1="844" x2="932.3333333333334" y1="135" y2="135" class="net_262,263,264,265,266,267,268,269,270,271,272"/>
  <line x1="682" x2="824.3333333333334" y1="633" y2="633" class="net_273,274,275,276"/>
  <line x1="234" x2="276" y1="513.5" y2="513.5" class="net_111,112,113,114,115,116,117,118,119"/>
  <line x1="444" x2="565" y1="433" y2="433" class="net_152,153,154,155,156,157,158,159"/>
  <line x1="1091" x2="1111" y1="268" y2="268" class="net_160"/>
  <line x1="1111" x2="1111" y1="268" y2="308" class="net_160"/>
  <line x1="1111" x2="916" y1="308" y2="308" class="net_160"/>
  <line x1="916" x2="916" y1="308" y2="268" class="net_160"/>
  <circle cx="1111" cy="308" r="2" style="fill:#000" class="net_160"/>
  <line x1="916" x2="926" y1="268" y2="268" class="net_160"/>
  <line x1="1091" x2="1111" y1="268" y2="268" class="net_160"/>
  <line x1="1111" x2="1111" y1="268" y2="248" class="net_160"/>
  <line x1="1111" x2="966" y1="248" y2="248" class="net_160"/>
  <line x1="966" x2="966" y1="248" y2="187" class="net_160"/>
  <circle cx="1111" cy="268" r="2" style="fill:#000" class="net_160"/>
  <line x1="966" x2="1002.6666666666666" y1="187" y2="187" class="net_160"/>
  <line x1="1091" x2="1111" y1="268" y2="268" class="net_160"/>
  <line x1="1111" x2="1111" y1="268" y2="426" class="net_160"/>
  <line x1="1111" x2="1175" y1="426" y2="426" class="net_160"/>
  <line x1="703.6666666666666" x2="764" y1="425.5" y2="425.5" class="net_101,102,103,104,105,106,107,108"/>
  <line x1="764" x2="764" y1="425.5" y2="478.5" class="net_101,102,103,104,105,106,107,108"/>
  <line x1="764" x2="822.6666666666666" y1="478.5" y2="478.5" class="net_101,102,103,104,105,106,107,108"/>
  <line x1="683" x2="822.6666666666666" y1="493.5" y2="493.5" class="net_162,163,164,165,166,167,168,169"/>
  <line x1="40" x2="1046" y1="370" y2="370" class="net_2"/>
  <line x1="1046" x2="1046" y1="370" y2="486" class="net_2"/>
  <line x1="1046" x2="1061" y1="486" y2="486" class="net_2"/>
  <line x1="40" x2="52" y1="370" y2="370" class="net_2"/>
  <line x1="52" x2="52" y1="370" y2="764.5" class="net_2"/>
  <circle cx="52" cy="370" r="2" style="fill:#000" class="net_2"/>
  <circle cx="52" cy="764.5" r="2" style="fill:#000" class="net_2"/>
  <line x1="52" x2="814" y1="764.5" y2="764.5" class="net_2"/>
  <line x1="40" x2="52" y1="370" y2="370" class="net_2"/>
  <line x1="52" x2="52" y1="370" y2="827" class="net_2"/>
  <line x1="52" x2="102" y1="827" y2="827" class="net_2"/>
  <line x1="40" x2="396" y1="370" y2="370" class="net_2"/>
  <line x1="396" x2="396" y1="370" y2="288" class="net_2"/>
  <circle cx="396" cy="370" r="2" style="fill:#000" class="net_2"/>
  <line x1="396" x2="1061" y1="288" y2="288" class="net_2"/>
  <line x1="40" x2="52" y1="370" y2="370" class="net_2"/>
  <line x1="52" x2="52" y1="370" y2="155" class="net_2"/>
  <line x1="52" x2="376" y1="155" y2="155" class="net_2"/>
  <line x1="376" x2="376" y1="155" y2="73" class="net_2"/>
  <circle cx="376" cy="155" r="2" style="fill:#000" class="net_2"/>
  <line x1="376" x2="1367" y1="73" y2="73" class="net_2"/>
  <line x1="40" x2="52" y1="370" y2="370" class="net_2"/>
  <line x1="52" x2="52" y1="370" y2="155" class="net_2"/>
  <line x1="52" x2="1309" y1="155" y2="155" class="net_2"/>
  <line x1="1309" x2="1309" y1="155" y2="197" class="net_2"/>
  <line x1="1309" x2="1367" y1="197" y2="197" class="net_2"/>
  <line x1="1022.6666666666666" x2="1061" y1="466" y2="466" class="net_178,179,180,181,182,183,184,185"/>
  <line x1="42" x2="814" y1="744.5" y2="744.5" class="net_277"/>
  <line x1="42" x2="62" y1="744.5" y2="744.5" class="net_277"/>
  <line x1="62" x2="62" y1="744.5" y2="807" class="net_277"/>
  <circle cx="62" cy="744.5" r="2" style="fill:#000" class="net_277"/>
  <line x1="62" x2="102" y1="807" y2="807" class="net_277"/>
  <line x1="42" x2="194" y1="744.5" y2="744.5" class="net_277"/>
  <line x1="194" x2="194" y1="744.5" y2="521" class="net_277"/>
  <circle cx="194" cy="744.5" r="2" style="fill:#000" class="net_277"/>
  <line x1="194" x2="212" y1="521" y2="521" class="net_277"/>
  <line x1="42" x2="62" y1="744.5" y2="744.5" class="net_277"/>
  <line x1="62" x2="62" y1="744.5" y2="237" class="net_277"/>
  <line x1="62" x2="1367" y1="237" y2="237" class="net_277"/>
  <line x1="1387" x2="1467" y1="610.5" y2="610.5" class="net_186,187,188,189"/>
  <line x1="1467" x2="1467" y1="610.5" y2="1046.5" class="net_186,187,188,189"/>
  <line x1="1467" x2="764" y1="1046.5" y2="1046.5" class="net_186,187,188,189"/>
  <line x1="764" x2="764" y1="1046.5" y2="784.5" class="net_186,187,188,189"/>
  <line x1="764" x2="814" y1="784.5" y2="784.5" class="net_186,187,188,189"/>
  <line x1="1387" x2="1457" y1="930" y2="930" class="net_194,195,196,197,198,199,200,201"/>
  <line x1="1457" x2="1457" y1="930" y2="1057.5" class="net_194,195,196,197,198,199,200,201"/>
  <line x1="1457" x2="62" y1="1057.5" y2="1057.5" class="net_194,195,196,197,198,199,200,201"/>
  <line x1="62" x2="62" y1="1057.5" y2="847" class="net_194,195,196,197,198,199,200,201"/>
  <line x1="62" x2="102" y1="847" y2="847" class="net_194,195,196,197,198,199,200,201"/>
  <line x1="1022.6666666666666" x2="1036" y1="197" y2="197" class="net_202"/>
  <line x1="1036" x2="1036" y1="197" y2="268" class="net_202"/>
  <line x1="1036" x2="1061" y1="268" y2="268" class="net_202"/>
  <line x1="1210" x2="1299" y1="43" y2="43" class="net_203,204,205,206,207,208,209,210,211,212,213,214,215,216,217,218,219,220,221,222,223,224,225,226,227,228,229,230,231,232,233,234"/>
  <line x1="1299" x2="1299" y1="43" y2="53" class="net_203,204,205,206,207,208,209,210,211,212,213,214,215,216,217,218,219,220,221,222,223,224,225,226,227,228,229,230,231,232,233,234"/>
  <line x1="1299" x2="1367" y1="53" y2="53" class="net_203,204,205,206,207,208,209,210,211,212,213,214,215,216,217,218,219,220,221,222,223,224,225,226,227,228,229,230,231,232,233,234"/>
  <line x1="849.6666666666666" x2="932.6666666666666" y1="486" y2="486" class="net_170,171,172,173,174,175,176,177"/>
  <line x1="846.3333333333334" x2="906" y1="625.5" y2="625.5" class="net_110"/>
  <line x1="906" x2="906" y1="625.5" y2="551" class="net_110"/>
  <line x1="906" x2="942.6666666666666" y1="551" y2="551" class="net_110"/>
  <circle cx="906" cy="625.5" r="2" style="fill:#000" class="net_110"/>
  <line x1="942.6666666666666" x2="942.6666666666666" y1="551" y2="491" class="net_110"/>
  <line x1="846.3333333333334" x2="906" y1="625.5" y2="625.5" class="net_110"/>
  <line x1="906" x2="906" y1="625.5" y2="853" class="net_110"/>
  <line x1="906" x2="1074.3333333333333" y1="853" y2="853" class="net_110"/>
  <line x1="1074.3333333333333" x2="1074.3333333333333" y1="853" y2="835.5" class="net_110"/>
  <line x1="846.3333333333334" x2="906" y1="625.5" y2="625.5" class="net_110"/>
  <line x1="906" x2="906" y1="625.5" y2="581" class="net_110"/>
  <line x1="906" x2="1074.3333333333333" y1="581" y2="581" class="net_110"/>
  <circle cx="906" cy="581" r="2" style="fill:#000" class="net_110"/>
  <line x1="1074.3333333333333" x2="1074.3333333333333" y1="581" y2="566" class="net_110"/>
  <line x1="845" x2="916" y1="744.5" y2="744.5" class="net_190,191,192,193"/>
  <line x1="916" x2="916" y1="744.5" y2="678" class="net_190,191,192,193"/>
  <circle cx="916" cy="744.5" r="2" style="fill:#000" class="net_190,191,192,193"/>
  <circle cx="916" cy="678" r="2" style="fill:#000" class="net_190,191,192,193"/>
  <line x1="916" x2="930.6666666666666" y1="678" y2="678" class="net_190,191,192,193"/>
  <line x1="845" x2="916" y1="744.5" y2="744.5" class="net_190,191,192,193"/>
  <line x1="916" x2="916" y1="744.5" y2="885" class="net_190,191,192,193"/>
  <line x1="916" x2="1061" y1="885" y2="885" class="net_190,191,192,193"/>
  <line x1="845" x2="916" y1="744.5" y2="744.5" class="net_190,191,192,193"/>
  <line x1="916" x2="916" y1="744.5" y2="561" class="net_190,191,192,193"/>
  <line x1="916" x2="1064.3333333333333" y1="561" y2="561" class="net_190,191,192,193"/>
  <line x1="845" x2="916" y1="744.5" y2="744.5" class="net_190,191,192,193"/>
  <line x1="916" x2="916" y1="744.5" y2="662" class="net_190,191,192,193"/>
  <line x1="916" x2="1036" y1="662" y2="662" class="net_190,191,192,193"/>
  <line x1="1036" x2="1036" y1="662" y2="698" class="net_190,191,192,193"/>
  <circle cx="916" cy="662" r="2" style="fill:#000" class="net_190,191,192,193"/>
  <line x1="1036" x2="1065.6666666666667" y1="698" y2="698" class="net_190,191,192,193"/>
  <line x1="844" x2="930.6666666666666" y1="693" y2="693" class="net_279,280"/>
  <line x1="952.6666666666666" x2="1002.6666666666666" y1="476" y2="476" class="net_235,236,237,238,239,240,241,242"/>
  <line x1="952.6666666666666" x2="976" y1="685.5" y2="685.5" class="net_243"/>
  <line x1="976" x2="976" y1="685.5" y2="551" class="net_243"/>
  <line x1="976" x2="1012.6666666666666" y1="551" y2="551" class="net_243"/>
  <circle cx="976" cy="685.5" r="2" style="fill:#000" class="net_243"/>
  <line x1="1012.6666666666666" x2="1012.6666666666666" y1="551" y2="481" class="net_243"/>
  <line x1="952.6666666666666" x2="976" y1="685.5" y2="685.5" class="net_243"/>
  <line x1="976" x2="976" y1="685.5" y2="1007" class="net_243"/>
  <line x1="976" x2="1195.3333333333333" y1="1007" y2="1007" class="net_243"/>
  <line x1="952.6666666666666" x2="976" y1="685.5" y2="685.5" class="net_243"/>
  <line x1="976" x2="976" y1="685.5" y2="651" class="net_243"/>
  <line x1="976" x2="1101" y1="651" y2="651" class="net_243"/>
  <line x1="1101" x2="1101" y1="651" y2="685.5" class="net_243"/>
  <circle cx="976" cy="651" r="2" style="fill:#000" class="net_243"/>
  <line x1="1101" x2="1190.25" y1="685.5" y2="685.5" class="net_243"/>
  <line x1="1022.6666666666666" x2="1064.3333333333333" y1="830.5" y2="830.5" class="net_13,14,15,16,17,18,19,20"/>
  <line x1="1201.3333333333333" x2="1367" y1="940" y2="940" class="net_244,245,246,247,248,249,250,251,281,282,283,284,285,286,287,288"/>
  <line x1="1201.3333333333333" x2="1377" y1="1017" y2="1017" class="net_243,252"/>
  <line x1="1377" x2="1377" y1="1017" y2="945" class="net_243,252"/>
  <line x1="1026" x2="1036" y1="401" y2="401" class="net_289,290,291,292"/>
  <line x1="1036" x2="1036" y1="401" y2="541" class="net_289,290,291,292"/>
  <line x1="1036" x2="1064.3333333333333" y1="541" y2="541" class="net_289,290,291,292"/>
  <line x1="1205" x2="1299" y1="553" y2="553" class="net_293,294,295,296"/>
  <line x1="1299" x2="1299" y1="553" y2="600.5" class="net_293,294,295,296"/>
  <line x1="1299" x2="1367" y1="600.5" y2="600.5" class="net_293,294,295,296"/>
  <line x1="1201.3333333333333" x2="1367" y1="620.5" y2="620.5" class="net_253,254,255,256,297,298,299,300,301,302,303,304"/>
  <line x1="1196.25" x2="1377" y1="695.5" y2="695.5" class="net_243,257,252"/>
  <line x1="1377" x2="1377" y1="695.5" y2="625.5" class="net_243,257,252"/>
  <line x1="1089.3333333333333" x2="1101" y1="96.5" y2="96.5" class="net_53,54,55,56,57,58,59,60,61,62,63,64,65,66,67,68,69,70,71,72,73,74,75,76,77,78,79,80,81,82,83,84"/>
  <line x1="1101" x2="1101" y1="96.5" y2="33" class="net_53,54,55,56,57,58,59,60,61,62,63,64,65,66,67,68,69,70,71,72,73,74,75,76,77,78,79,80,81,82,83,84"/>
  <line x1="1101" x2="1190" y1="33" y2="33" class="net_53,54,55,56,57,58,59,60,61,62,63,64,65,66,67,68,69,70,71,72,73,74,75,76,77,78,79,80,81,82,83,84"/>
  <line x1="1091" x2="1190" y1="53" y2="53" class="net_306,307,308,309,310,311,312,313,314,315,316,317,318,319,320,321,322,323,324,325,326,327,328,329,330,331,332,333,334,335,336,337"/>
  <line x1="954.3333333333334" x2="1200" y1="127.5" y2="127.5" class="net_109"/>
  <line x1="1200" x2="1200" y1="127.5" y2="58" class="net_109"/>
  <line x1="954.3333333333334" x2="986" y1="127.5" y2="127.5" class="net_109"/>
  <line x1="986" x2="986" y1="127.5" y2="227" class="net_109"/>
  <line x1="986" x2="1012.6666666666666" y1="227" y2="227" class="net_109"/>
  <circle cx="986" cy="127.5" r="2" style="fill:#000" class="net_109"/>
  <line x1="1012.6666666666666" x2="1012.6666666666666" y1="227" y2="212" class="net_109"/>
  <line x1="951" x2="976" y1="268" y2="268" class="net_161"/>
  <line x1="976" x2="976" y1="268" y2="207" class="net_161"/>
  <line x1="976" x2="1002.6666666666666" y1="207" y2="207" class="net_161"/>
  <line x1="307" x2="396" y1="513.5" y2="513.5" class="net_120,121,122,123,124,125,126,127,128,129,130,131,132,133,134,135,136,137,138,139,140,141,142,143,144,145,146,147,148,149,150,151"/>
  <line x1="396" x2="396" y1="513.5" y2="453" class="net_120,121,122,123,124,125,126,127,128,129,130,131,132,133,134,135,136,137,138,139,140,141,142,143,144,145,146,147,148,149,150,151"/>
  <circle cx="396" cy="513.5" r="2" style="fill:#000" class="net_120,121,122,123,124,125,126,127,128,129,130,131,132,133,134,135,136,137,138,139,140,141,142,143,144,145,146,147,148,149,150,151"/>
  <line x1="396" x2="413" y1="453" y2="453" class="net_120,121,122,123,124,125,126,127,128,129,130,131,132,133,134,135,136,137,138,139,140,141,142,143,144,145,146,147,148,149,150,151"/>
  <line x1="307" x2="652" y1="513.5" y2="513.5" class="net_120,121,122,123,124,125,126,127,128,129,130,131,132,133,134,135,136,137,138,139,140,141,142,143,144,145,146,147,148,149,150,151"/>
  <line x1="578" x2="630" y1="350" y2="350" class="net_3"/>
  <line x1="630" x2="630" y1="350" y2="493.5" class="net_3"/>
  <circle cx="630" cy="350" r="2" style="fill:#000" class="net_3"/>
  <line x1="630" x2="652" y1="493.5" y2="493.5" class="net_3"/>
  <line x1="578" x2="630" y1="350" y2="350" class="net_3"/>
  <line x1="630" x2="630" y1="350" y2="166" class="net_3"/>
  <line x1="630" x2="1299" y1="166" y2="166" class="net_3"/>
  <line x1="1299" x2="1299" y1="166" y2="217" class="net_3"/>
  <line x1="1299" x2="1367" y1="217" y2="217" class="net_3"/>
  <line x1="1206" x2="1367" y1="426" y2="426" class="net_4"/>
  <line x1="1084.3333333333333" x2="1111" y1="820.5" y2="820.5" class="net_244,245,246,247,248,249,250,251"/>
  <line x1="1111" x2="1111" y1="820.5" y2="930" class="net_244,245,246,247,248,249,250,251"/>
  <line x1="1111" x2="1195.3333333333333" y1="930" y2="930" class="net_244,245,246,247,248,249,250,251"/>
  <line x1="1091" x2="1195.3333333333333" y1="950" y2="950" class="net_281,282,283,284,285,286,287,288"/>
  <line x1="1086" x2="1101" y1="885" y2="885" class="net_252"/>
  <line x1="1101" x2="1101" y1="885" y2="1027" class="net_252"/>
  <circle cx="1101" cy="885" r="2" style="fill:#000" class="net_252"/>
  <line x1="1101" x2="1195.3333333333333" y1="1027" y2="1027" class="net_252"/>
  <line x1="1086" x2="1101" y1="885" y2="885" class="net_252"/>
  <line x1="1101" x2="1101" y1="885" y2="725.5" class="net_252"/>
  <line x1="1101" x2="1190.25" y1="725.5" y2="725.5" class="net_252"/>
  <line x1="1084.3333333333333" x2="1101" y1="551" y2="551" class="net_253,254,255,256"/>
  <line x1="1101" x2="1101" y1="551" y2="610.5" class="net_253,254,255,256"/>
  <line x1="1101" x2="1195.3333333333333" y1="610.5" y2="610.5" class="net_253,254,255,256"/>
  <line x1="1091" x2="1195.3333333333333" y1="630.5" y2="630.5" class="net_297,298,299,300,301,302,303,304"/>
  <line x1="1087.6666666666667" x2="1190.25" y1="705.5" y2="705.5" class="net_257"/>
</svg>
