<svg xmlns="http://www.w3.org/2000/svg" xmlns:xlink="http://www.w3.org/1999/xlink" xmlns:s="https://github.com/nturley/netlistsvg" width="662" height="185.5"><style>svg {
  stroke:#000;
  fill:none;
}
text {
  fill:#000;
  stroke:none;
  font-size:10px;
  font-weight: bold;
  font-family: "Courier New", monospace;
}
line {
    stroke-linecap: round;
}
.nodelabel {
  text-anchor: middle;
}
.inputPortLabel {
  text-anchor: end;
}
.splitjoinBody {
  fill:#000;
}</style><g s:type="generic" transform="translate(548,99.5)" s:width="30" s:height="40" id="cell_dataReciverModule"><text x="15" y="-4" class="nodelabel cell_dataReciverModule" s:attribute="ref">DataReciverModule</text><rect width="30" height="60" s:generic="body" class="cell_dataReciverModule"/><g transform="translate(0,10)" s:x="0" s:y="10" s:pid="in0" id="port_dataReciverModule~clk"><text x="-3" y="-4" class="inputPortLabel cell_dataReciverModule">clk</text></g><g transform="translate(0,30)" s:x="0" s:y="10" s:pid="in0" id="port_dataReciverModule~confirm_to_reciver"><text x="-3" y="-4" class="inputPortLabel cell_dataReciverModule">confirm_to_reciver</text></g><g transform="translate(0,50)" s:x="0" s:y="10" s:pid="in0" id="port_dataReciverModule~rst"><text x="-3" y="-4" class="inputPortLabel cell_dataReciverModule">rst</text></g></g><g s:type="generic" transform="translate(114,72)" s:width="30" s:height="40" id="cell_frequencyDivider"><text x="15" y="-4" class="nodelabel cell_frequencyDivider" s:attribute="ref">freqDiv</text><rect width="30" height="20" s:generic="body" class="cell_frequencyDivider"/><g transform="translate(0,10)" s:x="0" s:y="10" s:pid="in0" id="port_frequencyDivider~CLK_IN"><text x="-3" y="-4" class="inputPortLabel cell_frequencyDivider">CLK_IN</text></g><g transform="translate(30,10)" s:x="30" s:y="10" s:pid="out0" id="port_frequencyDivider~CLK_OUT"><text x="5" y="-4" style="fill:#000; stroke:none" class="cell_frequencyDivider">CLK_OUT</text></g></g><g s:type="generic" transform="translate(264,119.5)" s:width="30" s:height="40" id="cell_startModule"><text x="15" y="-4" class="nodelabel cell_startModule" s:attribute="ref">StartModule</text><rect width="30" height="40" s:generic="body" class="cell_startModule"/><g transform="translate(0,10)" s:x="0" s:y="10" s:pid="in0" id="port_startModule~clk"><text x="-3" y="-4" class="inputPortLabel cell_startModule">clk</text></g><g transform="translate(0,30)" s:x="0" s:y="10" s:pid="in0" id="port_startModule~rst"><text x="-3" y="-4" class="inputPortLabel cell_startModule">rst</text></g><g transform="translate(30,10)" s:x="30" s:y="10" s:pid="out0" id="port_startModule~confirm_to_reciver"><text x="5" y="-4" style="fill:#000; stroke:none" class="cell_startModule">confirm_to_reciver</text></g></g><g s:type="inputExt" transform="translate(12,72.5)" s:width="30" s:height="20" id="cell_hwclk"><text x="15" y="-4" class="nodelabel cell_hwclk" s:attribute="ref">hwclk</text><s:alias val="$_inputExt_"/><path d="M0,0 L0,20 L15,20 L30,10 L15,0 Z" class="cell_hwclk"/><g s:x="30" s:y="10" s:pid="Y"/></g><g s:type="outputExt" transform="translate(12,22)" s:width="30" s:height="20" id="cell_dht11_data"><text x="15" y="-4" class="nodelabel cell_dht11_data" s:attribute="ref">dht11_data</text><s:alias val="$_outputExt_"/><path d="M30,0 L30,20 L15,20 L0,10 L15,0 Z" class="cell_dht11_data"/><g s:x="0" s:y="10" s:pid="A"/></g><g s:type="constant" transform="translate(114,140)" s:width="30" s:height="20" id="cell_0"><text x="15" y="-4" class="nodelabel cell_0" s:attribute="ref">0</text><s:alias val="$_constant_"/><rect width="30" height="20" class="cell_0"/><g s:x="31" s:y="10" s:pid="Y"/></g><line x1="145" x2="414" y1="82.5" y2="82.5" class="net_4 width_1" style="stroke-width: 1"/><line x1="414" x2="414" y1="82.5" y2="110" class="net_4 width_1" style="stroke-width: 1"/><line x1="414" x2="548" y1="110" y2="110" class="net_4 width_1" style="stroke-width: 1"/><line x1="145" x2="220" y1="82.5" y2="82.5" class="net_4 width_1" style="stroke-width: 1"/><line x1="220" x2="220" y1="82.5" y2="130" class="net_4 width_1" style="stroke-width: 1"/><circle cx="220" cy="82.5" r="2" style="fill:#000" class="net_4 width_1"/><line x1="220" x2="264" y1="130" y2="130" class="net_4 width_1" style="stroke-width: 1"/><line x1="295" x2="548" y1="130" y2="130" class="net_5 width_1" style="stroke-width: 1"/><line x1="145" x2="220" y1="150" y2="150" class="net_6 width_1" style="stroke-width: 1"/><line x1="220" x2="220" y1="150" y2="172.5" class="net_6 width_1" style="stroke-width: 1"/><line x1="220" x2="414" y1="172.5" y2="172.5" class="net_6 width_1" style="stroke-width: 1"/><line x1="414" x2="414" y1="172.5" y2="150" class="net_6 width_1" style="stroke-width: 1"/><circle cx="220" cy="150" r="2" style="fill:#000" class="net_6 width_1"/><line x1="414" x2="548" y1="150" y2="150" class="net_6 width_1" style="stroke-width: 1"/><line x1="145" x2="264" y1="150" y2="150" class="net_6 width_1" style="stroke-width: 1"/><line x1="42" x2="114" y1="82.5" y2="82.5" class="net_2 width_1" style="stroke-width: 1"/></svg>